<?xml version="1.0" standalone="no"?>
<!DOCTYPE svg PUBLIC "-//W3C//DTD SVG 20010904//EN"
 "http://www.w3.org/TR/2001/REC-SVG-20010904/DTD/svg10.dtd">
<svg version="1.0" xmlns="http://www.w3.org/2000/svg"
 width="450.000000pt" height="392.000000pt" viewBox="0 0 450.000000 392.000000"
 preserveAspectRatio="xMidYMid meet">
<metadata>
Created by potrace 1.10, written by Peter Selinger 2001-2011
</metadata>
<g transform="translate(0.000000,392.000000) scale(0.100000,-0.100000)"
fill="#000000" stroke="none">
<path d="M2620 3440 c-78 -17 -169 -69 -235 -135 -76 -76 -135 -185 -136 -254
0 -25 -4 -54 -8 -64 -6 -17 -11 -16 -49 16 -160 134 -437 263 -687 322 -181
42 -318 56 -596 62 -337 7 -319 14 -319 -126 l0 -88 -43 -17 c-23 -9 -69 -16
-100 -16 -49 0 -62 -4 -84 -26 l-26 -26 7 -1197 7 -1196 23 -24 c21 -21 33
-23 94 -22 39 1 103 6 144 11 40 5 179 15 309 22 350 18 652 -3 904 -62 139
-33 162 -45 251 -129 114 -110 177 -129 323 -95 62 14 75 14 129 0 230 -60
573 61 713 252 41 56 48 60 101 71 156 32 333 179 384 321 17 48 23 54 89 88
220 115 302 334 220 587 -16 49 -22 81 -16 89 21 26 74 142 87 190 19 70 17
119 -6 212 -25 95 -67 169 -140 243 l-54 55 2 75 c4 119 -31 217 -110 307 -44
49 -171 130 -230 145 -48 13 -50 15 -83 86 -39 86 -122 177 -193 215 -72 39
-171 60 -271 57 -73 -2 -96 2 -156 25 -78 31 -174 41 -245 26z m203 -170 c60
-28 96 -65 125 -128 23 -51 24 -63 19 -159 -4 -94 -3 -107 14 -124 10 -10 24
-19 29 -19 25 0 68 31 78 57 29 74 21 237 -14 305 -9 17 -14 32 -11 34 8 8
112 -17 153 -36 95 -47 164 -151 165 -252 2 -110 -19 -147 -141 -249 -74 -62
-105 -123 -105 -209 0 -103 50 -155 111 -116 24 17 25 20 18 86 l-7 70 40 37
c22 21 64 58 93 83 64 53 104 114 121 181 15 58 24 60 95 19 128 -73 178 -195
140 -339 -29 -108 -105 -175 -201 -176 l-50 0 -17 -55 c-9 -30 -22 -75 -28
-99 -24 -91 -92 -117 -284 -107 -180 9 -248 -12 -377 -117 -105 -86 -163 -231
-142 -353 14 -80 42 -139 96 -200 62 -71 158 -126 260 -148 35 -8 65 8 78 41
15 40 -10 67 -83 92 -84 28 -159 81 -189 133 -33 59 -34 183 -2 244 29 54 93
110 162 143 53 24 65 26 206 26 83 1 166 5 185 9 54 13 122 51 157 88 35 37
72 111 73 146 0 18 6 22 33 22 44 0 122 47 179 108 l47 50 25 -27 c36 -38 73
-117 86 -187 10 -51 9 -71 -4 -125 -9 -35 -28 -81 -41 -101 l-25 -37 -47 21
c-30 13 -77 23 -125 26 -72 4 -78 3 -102 -21 -29 -30 -33 -53 -11 -83 11 -17
28 -22 83 -26 50 -4 84 -13 123 -34 49 -26 56 -34 76 -89 28 -76 30 -180 6
-250 -12 -34 -37 -69 -76 -109 -32 -32 -60 -56 -63 -54 -2 3 -11 31 -19 62
-22 84 -64 162 -107 202 -46 41 -60 42 -87 8 -27 -34 -27 -38 8 -104 40 -78
55 -149 48 -240 -9 -130 -68 -215 -196 -279 l-59 -30 0 112 c0 199 -54 292
-132 229 l-23 -18 19 -91 c22 -110 12 -201 -32 -291 -60 -125 -222 -236 -387
-267 -189 -36 -304 -5 -354 95 l-23 44 0 1176 c0 1315 -5 1228 72 1315 43 49
110 93 161 106 46 12 131 2 180 -21z m-1573 -65 c212 -25 373 -72 540 -155
164 -83 317 -203 368 -289 l27 -46 3 -730 c2 -401 0 -839 -3 -973 l-7 -243
-27 18 c-267 175 -653 269 -1189 289 l-192 7 0 1063 c0 840 3 1063 13 1067 28
12 351 6 467 -8z"/>
<path d="M2692 2975 c-36 -40 -47 -97 -39 -189 10 -110 40 -169 128 -257 65
-64 79 -83 79 -109 0 -41 -21 -80 -65 -118 -50 -45 -85 -61 -150 -68 -44 -5
-60 -12 -72 -30 -45 -69 56 -107 183 -69 112 33 199 125 229 240 24 96 9 133
-89 216 -91 76 -115 115 -123 202 -4 51 -1 72 17 115 l23 53 -23 24 c-32 35
-62 31 -98 -10z"/>
<path d="M3347 1793 c-8 -10 -20 -37 -26 -60 -13 -49 -69 -102 -109 -105 -15
0 -51 0 -79 1 -48 3 -54 1 -64 -22 -16 -35 -4 -76 27 -87 94 -36 265 24 313
110 41 74 39 148 -4 168 -34 16 -39 15 -58 -5z"/>
<path d="M2652 1185 c-32 -23 -56 -114 -49 -188 7 -82 43 -132 126 -174 73
-38 94 -40 122 -12 36 36 22 70 -41 101 -79 38 -94 60 -86 128 3 30 9 69 12
87 5 23 1 36 -15 52 -25 25 -39 26 -69 6z"/>
</g>
</svg>
